<svg width="20" height="20" viewBox="0 0 20 20" fill="none" xmlns="http://www.w3.org/2000/svg">
<path d="M9.16668 3.33334H3.33334C2.89132 3.33334 2.46739 3.50894 2.15483 3.8215C1.84227 4.13406 1.66668 4.55798 1.66668 5.00001V16.6667C1.66668 17.1087 1.84227 17.5326 2.15483 17.8452C2.46739 18.1577 2.89132 18.3333 3.33334 18.3333H15C15.442 18.3333 15.866 18.1577 16.1785 17.8452C16.4911 17.5326 16.6667 17.1087 16.6667 16.6667V10.8333" stroke="#550DC9" stroke-linecap="round" stroke-linejoin="round"/>
<path d="M15.4167 2.08332C15.7482 1.7518 16.1978 1.56555 16.6667 1.56555C17.1355 1.56555 17.5852 1.7518 17.9167 2.08332C18.2482 2.41484 18.4344 2.86448 18.4344 3.33332C18.4344 3.80216 18.2482 4.2518 17.9167 4.58332L10 12.5L6.66668 13.3333L7.50001 9.99999L15.4167 2.08332Z" stroke="#550DC9" stroke-linecap="round" stroke-linejoin="round"/>
</svg>
