<svg width="20" height="20" viewBox="0 0 20 20" fill="none" xmlns="http://www.w3.org/2000/svg">
<path d="M12.6667 18.6667H7.33332C6.44927 18.6667 5.60142 18.3155 4.9763 17.6903C4.35118 17.0652 3.99999 16.2174 3.99999 15.3333V7.33332C3.99999 7.15651 4.07023 6.98694 4.19525 6.86192C4.32028 6.73689 4.48984 6.66666 4.66666 6.66666C4.84347 6.66666 5.01304 6.73689 5.13806 6.86192C5.26308 6.98694 5.33332 7.15651 5.33332 7.33332V15.3333C5.33332 15.8638 5.54404 16.3725 5.91911 16.7475C6.29418 17.1226 6.80289 17.3333 7.33332 17.3333H12.6667C13.1971 17.3333 13.7058 17.1226 14.0809 16.7475C14.4559 16.3725 14.6667 15.8638 14.6667 15.3333V7.33332C14.6667 7.15651 14.7369 6.98694 14.8619 6.86192C14.9869 6.73689 15.1565 6.66666 15.3333 6.66666C15.5101 6.66666 15.6797 6.73689 15.8047 6.86192C15.9298 6.98694 16 7.15651 16 7.33332V15.3333C16 16.2174 15.6488 17.0652 15.0237 17.6903C14.3986 18.3155 13.5507 18.6667 12.6667 18.6667Z" fill="#FF6363"/>
<path d="M16.6667 5.33333H3.33333C3.15651 5.33333 2.98694 5.2631 2.86192 5.13807C2.7369 5.01305 2.66666 4.84348 2.66666 4.66667C2.66666 4.48986 2.7369 4.32029 2.86192 4.19526C2.98694 4.07024 3.15651 4 3.33333 4H16.6667C16.8435 4 17.013 4.07024 17.1381 4.19526C17.2631 4.32029 17.3333 4.48986 17.3333 4.66667C17.3333 4.84348 17.2631 5.01305 17.1381 5.13807C17.013 5.2631 16.8435 5.33333 16.6667 5.33333Z" fill="#FF6363"/>
<path d="M12.6666 5.33334H7.33331C7.1565 5.33334 6.98693 5.26311 6.86191 5.13808C6.73688 5.01306 6.66665 4.84349 6.66665 4.66668V3.33334C6.66665 2.80291 6.87736 2.2942 7.25243 1.91913C7.62751 1.54406 8.13621 1.33334 8.66665 1.33334H11.3333C11.8637 1.33334 12.3725 1.54406 12.7475 1.91913C13.1226 2.2942 13.3333 2.80291 13.3333 3.33334V4.66668C13.3333 4.84349 13.2631 5.01306 13.1381 5.13808C13.013 5.26311 12.8435 5.33334 12.6666 5.33334ZM7.99998 4.00001H12V3.33334C12 3.15653 11.9297 2.98696 11.8047 2.86194C11.6797 2.73691 11.5101 2.66668 11.3333 2.66668H8.66665C8.48984 2.66668 8.32027 2.73691 8.19524 2.86194C8.07022 2.98696 7.99998 3.15653 7.99998 3.33334V4.00001Z" fill="#FF6363"/>
<path d="M8.66667 14.6667C8.48986 14.6667 8.32029 14.5964 8.19527 14.4714C8.07024 14.3464 8.00001 14.1768 8.00001 14V9.33335C8.00001 9.15654 8.07024 8.98697 8.19527 8.86195C8.32029 8.73693 8.48986 8.66669 8.66667 8.66669C8.84348 8.66669 9.01305 8.73693 9.13808 8.86195C9.2631 8.98697 9.33334 9.15654 9.33334 9.33335V14C9.33334 14.1768 9.2631 14.3464 9.13808 14.4714C9.01305 14.5964 8.84348 14.6667 8.66667 14.6667Z" fill="#FF6363"/>
<path d="M11.3333 14.6667C11.1565 14.6667 10.9869 14.5964 10.8619 14.4714C10.7369 14.3464 10.6667 14.1768 10.6667 14V9.33335C10.6667 9.15654 10.7369 8.98697 10.8619 8.86195C10.9869 8.73693 11.1565 8.66669 11.3333 8.66669C11.5101 8.66669 11.6797 8.73693 11.8047 8.86195C11.9298 8.98697 12 9.15654 12 9.33335V14C12 14.1768 11.9298 14.3464 11.8047 14.4714C11.6797 14.5964 11.5101 14.6667 11.3333 14.6667Z" fill="#FF6363"/>
</svg>
